<svg width="20" height="24" viewBox="0 0 20 24" fill="none" xmlns="http://www.w3.org/2000/svg">
<path d="M19.7561 21.588L15.5827 16.7174C16.8564 14.9576 17.6152 12.6637 17.6152 10.2127C17.6152 4.58784 13.6585 0 8.80759 0C3.95664 0 0 4.58784 0 10.2127C0 15.8375 3.95664 20.4253 8.80759 20.4253C10.9485 20.4253 12.8997 19.5455 14.4173 18.0686L18.6179 22.9078C18.7805 23.0963 18.9973 23.1906 19.187 23.1906C19.3767 23.1906 19.5935 23.0963 19.7561 22.9078C20.0813 22.5621 20.0813 21.9337 19.7561 21.588ZM1.62602 10.2127C1.62602 5.62482 4.85095 1.88542 8.80759 1.88542C12.7642 1.88542 15.9892 5.62482 15.9892 10.2127C15.9892 14.8005 12.7642 18.5399 8.80759 18.5399C4.85095 18.5399 1.62602 14.8005 1.62602 10.2127Z" fill="url(#paint0_linear)"/>
<defs>
<linearGradient id="paint0_linear" x1="10" y1="-3.14236e-05" x2="10" y2="23.1906" gradientUnits="userSpaceOnUse">
<stop stop-color="#00EFD1"/>
<stop offset="1" stop-color="#00ACEA"/>
</linearGradient>
</defs>
</svg>
